<svg width="387" height="128" viewBox="0 0 387 128" fill="none" xmlns="http://www.w3.org/2000/svg">
<path d="M0 52.4944V69.0957H25.347V127.185H42.2449V69.0957H67.5917V52.4944H0Z" fill="#34383A"/>
<path d="M160.527 74.6965H143.629V127.191H160.527V74.6965Z" fill="#34383A"/>
<path d="M266.976 111.419C264.574 111.427 262.214 110.807 260.136 109.624C258.059 108.441 256.339 106.736 255.152 104.685C253.966 102.634 253.356 100.31 253.385 97.9513C253.414 95.5924 254.081 93.2833 255.318 91.261C256.554 89.2387 258.316 87.5757 260.422 86.4424C262.528 85.3091 264.903 84.7467 267.303 84.812C269.704 84.8773 272.043 85.5676 274.082 86.8137C276.121 88.0597 277.787 89.8165 278.907 91.903L293.954 84.3371C290.815 78.3975 285.738 73.6647 279.535 70.8977C273.333 68.1307 266.364 67.4899 259.746 69.077C253.128 70.6641 247.244 74.3881 243.037 79.6515C238.83 84.915 236.543 91.4137 236.543 98.106C236.543 104.798 238.83 111.297 243.037 116.56C247.244 121.824 253.128 125.546 259.746 127.134C266.364 128.721 273.333 128.08 279.535 125.313C285.738 122.546 290.815 117.813 293.954 111.873L278.907 104.315C277.765 106.454 276.05 108.246 273.947 109.497C271.845 110.749 269.434 111.414 266.976 111.419V111.419Z" fill="#34383A"/>
<path d="M385.556 101.428C384.641 99.4397 383.299 97.6705 381.622 96.2396C379.934 94.8313 378.015 93.7151 375.946 92.9386C372.57 91.6783 369.071 90.7603 365.505 90.2006C361.325 89.6303 357.404 89.0156 357.404 85.8476C357.404 84.2129 359.339 83.0477 362.563 83.0477C364.918 82.9852 367.249 83.5219 369.331 84.6054C371.413 85.689 373.174 87.2814 374.444 89.2307L386.556 80.2215C383.901 76.1918 380.184 72.944 375.801 70.8242C371.417 68.7043 366.53 67.7909 361.661 68.1821C356.396 68.0829 351.288 69.9497 347.368 73.4044C343.448 76.8591 341.007 81.6461 340.538 86.7989C340.684 90.5051 342.096 94.0551 344.546 96.877C346.996 99.6988 350.341 101.627 354.044 102.353C361.228 104.254 370.103 104.704 370.103 109.184C370.103 112.32 366.304 112.739 363.009 112.739C360.553 112.486 358.179 111.729 356.041 110.516C353.903 109.303 352.049 107.662 350.6 105.699L338.926 115.146C343.148 121.433 349.723 125.831 357.225 127.385C364.728 128.939 372.551 127.524 378.997 123.446C381.333 121.914 383.288 119.885 384.718 117.509C386.286 114.812 387.073 111.743 386.995 108.638C387.043 106.161 386.552 103.704 385.556 101.428Z" fill="#34383A"/>
<path d="M317.651 75.4433V69.1072H300.766V127.204H317.651C317.651 127.204 317.651 100.902 317.651 96.0681C317.652 92.7671 318.988 89.6013 321.365 87.2678C323.741 84.9342 326.964 83.6233 330.324 83.6233C332.591 83.6247 334.852 83.824 337.083 84.2188V69.2341C336.251 69.1517 335.406 69.1072 334.548 69.1072C328.312 69.0963 322.293 71.3534 317.651 75.4433Z" fill="#34383A"/>
<path d="M202.763 69.0967C196.528 69.0858 190.508 71.3429 185.866 75.4328V69.0967H169V127.186H185.898V96.0498C185.898 92.7478 187.233 89.5813 189.61 87.2464C191.986 84.9115 195.21 83.5989 198.571 83.5989C201.932 83.5989 205.156 84.9115 207.533 87.2464C209.909 89.5813 211.245 92.7478 211.245 96.0498V127.186H228.143V93.9971C228.143 90.7242 227.487 87.4825 226.212 84.4589C224.936 81.4354 223.067 78.6892 220.709 76.3764C218.352 74.0636 215.553 72.2301 212.474 70.9808C209.395 69.7316 206.095 69.0917 202.763 69.0967V69.0967Z" fill="#34383A"/>
<path d="M109.831 69.0891C103.595 69.0776 97.5754 71.3347 92.933 75.4252V52.4832H76.0352V127.172H92.933V96.0375C92.933 92.7355 94.2681 89.5675 96.6448 87.2326C99.0215 84.8977 102.245 83.5866 105.606 83.5866C108.967 83.5866 112.191 84.8977 114.568 87.2326C116.944 89.5675 118.28 92.7355 118.28 96.0375V127.172H135.178V93.9771C135.177 90.7079 134.521 87.4713 133.247 84.4513C131.972 81.4313 130.105 78.6876 127.751 76.3765C125.397 74.0654 122.603 72.2328 119.529 70.9825C116.454 69.7322 113.159 69.0882 109.831 69.0891Z" fill="#34383A"/>
<path d="M198.622 16.5997C201.129 16.5997 203.579 17.3308 205.663 18.6989C207.747 20.0669 209.372 22.0112 210.331 24.2863C211.29 26.5613 211.541 29.0642 211.052 31.4793C210.563 33.8945 209.356 36.1129 207.584 37.8541C205.811 39.5953 203.553 40.7815 201.095 41.2619C198.636 41.7423 196.088 41.4958 193.772 40.5534C191.456 39.6111 189.477 38.0143 188.085 35.9669C186.692 33.9194 185.949 31.5132 185.949 29.0507C185.949 25.7486 187.284 22.5822 189.661 20.2473C192.038 17.9124 195.261 16.5997 198.622 16.5997V16.5997ZM198.622 0C192.774 0 187.056 1.70377 182.193 4.89592C177.33 8.08808 173.54 12.6248 171.302 17.9332C169.064 23.2415 168.478 29.0832 169.619 34.7185C170.76 40.3539 173.576 45.5291 177.712 49.5919C181.848 53.6548 187.117 56.422 192.853 57.543C198.589 58.6639 204.535 58.0897 209.939 55.8909C215.342 53.6921 219.961 49.9684 223.21 45.191C226.459 40.4136 228.194 34.7964 228.194 29.0507C228.185 21.3485 225.067 13.9635 219.523 8.51721C213.979 3.07091 206.463 0.00838565 198.622 0V0Z" fill="#31E8BE"/>
<path d="M152.068 66.4211C159.067 66.4211 164.741 60.8468 164.741 53.9707C164.741 47.0945 159.067 41.5203 152.068 41.5203C145.069 41.5203 139.395 47.0945 139.395 53.9707C139.395 60.8468 145.069 66.4211 152.068 66.4211Z" fill="#31E8BE"/>
</svg>
